<?xml version="1.0" encoding="UTF-8"?>
<svg id="_Слой_2" data-name="Слой 2" xmlns="http://www.w3.org/2000/svg" viewBox="0 0 917.35 683.13">
  <defs>
    <style>
      .cls-1 {
        fill: #ffff;
      }
    </style>
  </defs>
  <g id="_Слой_1-2" data-name="Слой 1">
    <g>
      <g>
        <path class="cls-1" d="m100.81,527.31c15.47-2.91,26.82-13.97,26.82-28.98,0-18.94-15.76-32.54-46.05-32.54H0v136.54h83.93c28.42,0,52.14-10.5,52.14-37.89,0-17.54-11.25-32.92-35.26-37.14Zm-79.53-50.92h58.05c13.41,0,26.45,6.66,26.45,23.63,0,12.47-9.66,24.01-26.54,24.01H21.29v-47.64Zm58.99,115.35H21.29v-59.46h58.52c17.44,0,33.67,9.28,33.67,30.57,0,16.6-11.54,28.88-33.2,28.88Z"/>
        <path class="cls-1" d="m298.68,602.33l-66.3-136.54h-21.29l-67.24,136.54h15.57l17.35-35.82h80.09l17.35,35.82h24.48Zm-117.32-45.3l35.54-73.15,35.36,73.15h-70.9Z"/>
        <path class="cls-1" d="m439.53,504.99c0-21.01-17.91-39.2-52.24-39.2h-70.15v136.54h20.82v-57.77h33.1c6.94,0,12.19,2.06,15.85,7.6l32.26,50.17h23.82l-32.07-49.52c-2.34-3.47-6.85-6.75-13.04-8.91,27.48-3.38,41.64-20.16,41.64-38.92Zm-51.86,30.1h-49.7v-58.71h49.7c18.94,0,29.82,14.72,29.82,29.35s-10.69,29.35-29.82,29.35Z"/>
        <path class="cls-1" d="m540.52,465.79h-21.29l-67.24,136.54h15.57l17.35-35.82h80.09l17.35,35.82h24.48l-66.3-136.54Zm-51.02,91.25l35.54-73.15,35.36,73.15h-70.9Z"/>
        <path class="cls-1" d="m625.29,465.79v136.54h21.29v-70.33h16.97c6.75,0,8.91,2.72,13.6,9.47l41.08,60.86h27.1l-45.3-65.27c-3.09-4.59-6.85-8.72-12.19-10.97,2.34-1.78,4.59-4.03,6.94-6.57l49.14-53.74h-18.66l-42.76,46.61c-6.28,6.66-9.47,9.66-15.29,9.66h-20.63v-56.27h-21.29Z"/>
        <path class="cls-1" d="m851.05,465.79h-21.29l-67.24,136.54h15.57l17.35-35.82h80.09l17.35,35.82h24.48l-66.3-136.54Zm-51.02,91.25l35.54-73.15,35.36,73.15h-70.9Z"/>
      </g>
      <path class="cls-1" d="m642.28,0h-367.2v367.2h367.2V0Zm-354.2,104.27c4.09-.45,8.24-.69,12.42-.69,13.02,0,24.97,1.81,35.49,5.38,8.65,2.94,15.68,6.74,20.93,11.31-10.28,11.6-18.13,23.44-23.34,35.23-5.72,12.95-8.62,25.44-8.62,37.12s2.68,21.7,7.96,30.59c-5.31,3.49-11.36,6.39-18,8.62-8.01,2.69-16.12,4.06-24.11,4.06-.92,0-1.83-.03-2.73-.07V104.27Zm69.17,40.04c3.04-4.41,6.45-8.73,10.15-12.9,1.65,2.59,2.81,5.26,3.46,7.97,1.06,4.39,1.59,9.71,1.59,15.82,0,5.38-.64,11.06-1.9,16.87-1.25,5.78-3.23,11.59-5.87,17.24-2.63,5.62-6.06,11.04-10.19,16.13-3.21,3.96-6.97,7.58-11.2,10.79-3.16-5.77-4.76-12.61-4.76-20.38,0-5.19.73-10.73,2.16-16.45,1.44-5.76,3.58-11.66,6.36-17.54,2.79-5.89,6.23-11.79,10.2-17.55Zm-69.17,103.41c1.89.14,3.82.21,5.77.21,8.71,0,17.6-1.27,26.41-3.77,7.78-2.2,15-5.42,21.49-9.58,5.38,4.44,11.14,7.73,17.16,9.8,6.86,2.36,14.02,3.55,21.29,3.55,6.66,0,13.6-.98,20.65-2.9,6.96-1.91,13.8-4.57,20.34-7.91,6.56-3.35,12.81-7.41,18.56-12.06,5.8-4.69,10.95-9.91,15.29-15.51,4.39-5.65,7.93-11.73,10.52-18.07,2.67-6.49,4.02-13.26,4.02-20.12,0-10.66-2.69-19.03-8-24.87-5.42-5.95-12.94-8.97-22.33-8.97-5.69,0-11.58,1.53-17.52,4.54-5.92,3-11.53,7.98-16.69,14.8l-1.14,1.57,3,2.42,1.27-1.43s.08-.08.12-.12c.02-.02.05-.05.07-.07,2.61-2.2,15.53-12.18,33.19-11.25,4.43.41,7.85,1.93,10.44,4.64,3.11,3.28,4.63,7.49,4.63,12.86,0,8.89-2.17,17.52-6.45,25.67-4.37,8.32-10.22,15.78-17.4,22.18-7.2,6.42-15.55,11.6-24.81,15.39-9.19,3.76-18.69,5.67-28.23,5.67-5.88,0-11.49-.83-16.68-2.47-3.35-1.05-6.48-2.59-9.32-4.56,12.16-9.45,21.17-19.7,26.8-30.49,6.31-12.08,9.5-24.05,9.5-35.57,0-8.21-1.4-16.06-4.17-23.34-2.27-6-5.31-11.49-9.05-16.34,7.11-7.26,15.16-13.88,23.95-19.67,9.92-6.53,20.54-12.15,31.58-16.72,11.05-4.56,22.54-8.06,34.17-10.4,11.63-2.34,23.27-3.53,34.59-3.53,9.54,0,18.88.9,27.76,2.67,8.8,1.76,17.13,4.49,24.75,8.13,7.56,3.6,14.46,8.25,20.51,13.82,4.94,4.55,9.24,9.9,12.8,15.9-4.8,2.2-9.51,4.6-14.01,7.15h0c-5.85,3.32-11.59,7.06-17.05,11.11-5.47,4.05-10.96,8.62-16.31,13.59-5.27,4.89-10.69,10.37-16.11,16.3-5.23,5.74-10.86,12.47-16.73,20-5.53,7.1-11.76,15.02-18.5,23.53-6.51,8.2-13.46,16.55-20.67,24.82-7.24,8.3-14.92,16.36-22.81,23.95-7.85,7.54-16.28,14.49-25.05,20.67-8.72,6.13-17.91,11.23-27.34,15.14-6.63,2.82-13.91,5.39-21.64,7.62-7.74,2.23-15.86,4.14-24.11,5.7-8.26,1.55-16.8,2.78-25.38,3.65-8.58.87-17.13,1.31-25.41,1.31-2.59,0-5.14-.06-7.67-.17v-58.46Zm267.09-60.65h-.06c-6.32.14-12.56.84-18.54,2.08-6.06,1.27-11.54,3.04-16.29,5.25-1.71.79-3.32,1.65-4.81,2.56,6.71-8.78,12.92-16.81,18.53-23.94,5.29-6.64,10.29-12.66,14.87-17.89,4.39-5,8.95-9.56,13.55-13.55,4.57-3.96,9.55-7.67,14.8-11.03,4.19-2.68,9.03-5.48,14.42-8.34.23.98.43,2.08.59,3.27.48,3.54.72,6.64.72,9.22,0,4.84-.6,9.78-1.78,14.68-1.2,4.97-2.9,9.93-5.07,14.74-2.14,4.77-4.82,9.42-7.95,13.81-2.68,3.77-5.68,7.34-8.9,10.64-1.94-.41-3.91-.74-5.87-.98-2.77-.33-5.54-.5-8.23-.5Zm2.91,11.51c-.92.68-1.88,1.36-2.88,2.05h0c-3.79,2.59-7.96,5.01-12.41,7.2-4.4,2.17-8.99,4-13.63,5.46-4.45,1.39-8.6,2.09-12.33,2.09-.78,0-1.09-.1-1.18-.14-.03-.09-.11-.35-.11-.96,0-1.85.84-3.5,2.64-5.17,2.27-2.11,5.29-3.94,8.99-5.45,3.91-1.6,8.29-2.9,13.01-3.85,4.69-.95,9.3-1.43,13.69-1.43,1.4,0,2.8.08,4.21.22Zm71.19,155.61h-341.19v-34.38c4.58.32,9.23.48,13.94.48,8.59,0,17.38-.42,26.13-1.26,8.78-.84,17.51-2.07,25.93-3.66,8.51-1.62,16.8-3.6,24.62-5.89,7.95-2.33,15.49-5.01,22.43-7.97,15.1-6.58,29.3-15.32,42.21-25.97,12.75-10.52,24.76-21.98,35.68-34.04,8.49-9.38,16.54-18.88,24.02-28.36-.08.68-.12,1.37-.12,2.07,0,2.73,1.08,5.28,3.2,7.59,2.25,2.46,5.75,3.65,10.71,3.65,6.72,0,13.24-.96,19.38-2.85,5.97-1.83,11.57-4.1,16.66-6.74,5.08-2.65,9.67-5.53,13.63-8.56,2.81-2.15,5.3-4.12,7.42-5.86.61.49,1.16,1.08,1.65,1.79,1.21,1.73,2.2,3.81,2.96,6.18.8,2.51,1.34,5.19,1.63,7.98.3,2.94.45,5.89.45,8.79,0,1.99-.12,4.01-.35,6.04h-1.32c-2.02,0-5.49.58-10.91,1.82-5.12,1.17-11.06,2.86-17.67,5.05-6.58,2.17-13.6,4.87-20.87,8.02-7.39,3.21-14.26,6.94-20.43,11.1-6.35,4.28-11.65,9.04-15.75,14.15-4.46,5.56-6.72,11.69-6.72,18.21,0,3.76.91,7.02,2.72,9.67,1.67,2.47,3.84,4.52,6.44,6.09,2.48,1.5,5.27,2.6,8.31,3.27,2.88.63,5.83.95,8.79.95,7.12,0,14.27-1.16,21.25-3.44,6.85-2.24,13.53-5.31,19.86-9.13,6.31-3.81,12.24-8.35,17.64-13.48,5.39-5.13,10.11-10.62,14.04-16.32,3.99-5.78,7.15-11.81,9.41-17.94,2.32-6.27,3.49-12.45,3.49-18.36,0-8.82-1.8-17.07-5.35-24.52-2.82-5.91-6.76-10.75-11.72-14.41,3.95-4.06,7.37-7.9,10.18-11.45,3.74-4.73,6.82-9.35,9.16-13.75,2.38-4.51,4.08-9.06,5.04-13.53.95-4.38,1.43-8.99,1.43-13.7s-.58-9.34-1.74-14.02c-.78-3.18-1.79-6.43-3.01-9.67,4.6-1.55,15.67-5.23,26.74-8.61v244.96Zm-50.75-112.08c-.16.57-.32,1.14-.49,1.71h0c-1.73,5.72-4.22,11.39-7.41,16.86-3.21,5.5-7.02,10.77-11.32,15.67-4.26,4.84-9,9.13-14.11,12.73-5.08,3.57-10.51,6.44-16.16,8.51-5.52,2.04-11.2,3.07-16.91,3.07-1.64,0-3.3-.23-4.95-.7-1.61-.45-3.08-1.1-4.36-1.94-1.16-.76-2.06-1.65-2.75-2.73-.58-.91-.86-1.91-.86-3.14,0-4.65,1.46-8.82,4.46-12.72,3.26-4.24,7.49-8.19,12.58-11.74,5.21-3.62,11.08-6.87,17.46-9.66,6.48-2.83,12.89-5.39,19.05-7.58,6.16-2.19,11.74-4.02,16.61-5.43,3.82-1.11,6.89-2.08,9.16-2.89Zm50.75-141.7c-1.93.3-3.86.62-5.8.98-5.25.97-10.43,2.07-15.42,3.28-3.75.9-7.26,1.91-10.47,2.99-4.32-7.42-9.6-14.02-15.69-19.66-6.92-6.4-14.87-11.78-23.64-15.99-8.71-4.19-18.24-7.34-28.35-9.36-10.05-2.01-20.59-3.03-31.31-3.03-11.35,0-23.13,1.18-35,3.49-11.86,2.33-23.74,5.78-35.29,10.28-11.58,4.51-23.03,10.24-34.02,17.06-9.93,6.16-19.44,13.25-28.29,21.1-3.51-2.94-7.32-5.54-11.34-7.73-5.08-2.78-10.61-5.09-16.46-6.89-5.77-1.76-11.9-3.09-18.24-3.94-6.33-.84-12.81-1.27-19.27-1.27-4.25,0-8.46.21-12.61.64V13.01h341.19v87.41Z"/>
      <g>
        <polygon class="cls-1" points="137.42 656.15 145.39 656.15 145.39 676.49 148.67 676.49 148.67 656.15 156.63 656.15 156.63 653.27 137.42 653.27 137.42 656.15"/>
        <path class="cls-1" d="m175.38,666.34c0,2.59-.57,4.48-1.71,5.67-1.14,1.19-2.76,1.79-4.86,1.79s-3.69-.6-4.83-1.79c-1.14-1.19-1.71-3.09-1.71-5.67v-13.07h-3.32v13.2c0,3.36.87,5.92,2.62,7.66,1.75,1.75,4.15,2.62,7.2,2.62s5.48-.87,7.22-2.62c1.74-1.75,2.6-4.3,2.6-7.66v-13.2h-3.22v13.07Z"/>
        <path class="cls-1" d="m199,668.46c1.44-.64,2.54-1.56,3.32-2.77.77-1.21,1.16-2.65,1.16-4.33s-.39-3.13-1.16-4.35c-.77-1.22-1.88-2.15-3.32-2.79-1.44-.64-3.17-.96-5.21-.96h-9.06v23.22h3.32v-7.07h5.74c.51,0,1-.02,1.47-.06l4.99,7.13h3.62l-5.52-7.79c.22-.08.44-.15.64-.24Zm-5.31-1.86h-5.64v-10.45h5.64c2.12,0,3.73.45,4.83,1.36,1.09.91,1.64,2.19,1.64,3.85s-.55,2.95-1.64,3.87c-1.1.92-2.7,1.38-4.83,1.38Z"/>
        <path class="cls-1" d="m215.19,653.27l-10.52,23.22h3.42l2.55-5.81h12.35l2.55,5.81h3.48l-10.55-23.22h-3.28Zm-3.38,14.76l5.01-11.4,5.01,11.4h-10.02Z"/>
        <path class="cls-1" d="m246.07,668.46c1.44-.64,2.54-1.56,3.32-2.77.77-1.21,1.16-2.65,1.16-4.33s-.39-3.13-1.16-4.35c-.77-1.22-1.88-2.15-3.32-2.79-1.44-.64-3.17-.96-5.21-.96h-9.06v23.22h3.32v-7.07h5.74c.51,0,1-.02,1.47-.06l4.99,7.13h3.62l-5.52-7.79c.22-.08.44-.15.64-.24Zm-5.31-1.86h-5.64v-10.45h5.64c2.12,0,3.73.45,4.83,1.36,1.09.91,1.64,2.19,1.64,3.85s-.55,2.95-1.64,3.87c-1.09.92-2.7,1.38-4.83,1.38Z"/>
        <rect class="cls-1" x="254" y="663.39" width="8.92" height="2.75"/>
        <path class="cls-1" d="m265.48,656.15h8.39v13.04c0,3.14-1.33,4.71-3.98,4.71-.97,0-1.86-.24-2.67-.71-.81-.48-1.53-1.16-2.17-2.04l-1.92,2.26c.75,1.08,1.73,1.91,2.92,2.49,1.19.58,2.48.86,3.85.86,2.39,0,4.2-.64,5.42-1.92,1.23-1.28,1.84-3.22,1.84-5.81v-15.76h-11.68v2.89Z"/>
        <path class="cls-1" d="m302.55,656.37c-1.12-1.07-2.42-1.9-3.91-2.49-1.49-.59-3.12-.88-4.89-.88s-3.44.3-4.94.9c-1.5.6-2.81,1.43-3.91,2.5-1.11,1.07-1.97,2.33-2.59,3.77-.62,1.44-.93,3.01-.93,4.71s.31,3.27.93,4.71c.62,1.44,1.48,2.69,2.59,3.77,1.11,1.07,2.42,1.91,3.93,2.5,1.51.6,3.16.9,4.93.9s3.4-.29,4.89-.88c1.49-.59,2.8-1.42,3.91-2.49,1.12-1.07,1.98-2.33,2.59-3.77.61-1.44.91-3.02.91-4.74s-.3-3.31-.91-4.74c-.61-1.44-1.47-2.69-2.59-3.77Zm-.5,12.06c-.45,1.08-1.08,2.03-1.89,2.84-.81.81-1.76,1.43-2.85,1.87-1.09.44-2.28.66-3.57.66s-2.5-.22-3.6-.66c-1.09-.44-2.05-1.07-2.87-1.87-.82-.81-1.45-1.75-1.91-2.84-.45-1.08-.68-2.27-.68-3.55s.23-2.47.68-3.55c.45-1.08,1.09-2.03,1.91-2.84.82-.81,1.77-1.43,2.87-1.87,1.1-.44,2.29-.66,3.6-.66s2.47.22,3.57.66c1.1.44,2.05,1.07,2.85,1.87.81.81,1.44,1.75,1.89,2.84.45,1.08.68,2.27.68,3.55s-.23,2.47-.68,3.55Z"/>
        <polygon class="cls-1" points="324.3 653.27 316.84 665.52 309.41 653.27 305.85 653.27 315.08 668.4 315.08 676.49 318.36 676.49 318.36 668.45 327.58 653.27 324.3 653.27"/>
        <polygon class="cls-1" points="360.49 653.27 350.94 669.58 341.25 653.27 338.53 653.27 338.53 676.49 341.72 676.49 341.72 659.66 350.11 673.67 351.64 673.67 360.03 659.56 360.06 676.49 363.25 676.49 363.22 653.27 360.49 653.27"/>
        <path class="cls-1" d="m376.55,653.27l-10.52,23.22h3.42l2.55-5.81h12.35l2.55,5.81h3.48l-10.55-23.22h-3.28Zm-3.38,14.76l5.01-11.4,5.01,11.4h-10.02Z"/>
        <path class="cls-1" d="m392.24,656.15h8.39v13.04c0,3.14-1.33,4.71-3.98,4.71-.97,0-1.86-.24-2.67-.71-.81-.48-1.53-1.16-2.17-2.04l-1.92,2.26c.75,1.08,1.73,1.91,2.92,2.49,1.19.58,2.48.86,3.85.86,2.39,0,4.2-.64,5.42-1.92,1.23-1.28,1.84-3.22,1.84-5.81v-15.76h-11.68v2.89Z"/>
        <polygon class="cls-1" points="431.99 653.27 422.43 669.58 412.75 653.27 410.03 653.27 410.03 676.49 413.21 676.49 413.21 659.66 421.6 673.67 423.13 673.67 431.53 659.56 431.56 676.49 434.74 676.49 434.71 653.27 431.99 653.27"/>
        <path class="cls-1" d="m457.27,666.34c0,2.59-.57,4.48-1.71,5.67-1.14,1.19-2.76,1.79-4.86,1.79s-3.69-.6-4.83-1.79c-1.14-1.19-1.71-3.09-1.71-5.67v-13.07h-3.32v13.2c0,3.36.87,5.92,2.62,7.66,1.75,1.75,4.15,2.62,7.2,2.62s5.48-.87,7.22-2.62c1.74-1.75,2.6-4.3,2.6-7.66v-13.2h-3.22v13.07Z"/>
        <path class="cls-1" d="m473.12,653.27l-10.52,23.22h3.42l2.55-5.81h12.35l2.55,5.81h3.48l-10.55-23.22h-3.28Zm-3.38,14.76l5.01-11.4,5.01,11.4h-10.02Z"/>
        <path class="cls-1" d="m502.73,665.31c-.83-.46-1.75-.84-2.75-1.13-1.01-.29-2.01-.55-3-.78-1-.23-1.91-.49-2.74-.78-.83-.29-1.5-.67-2.02-1.16-.52-.49-.78-1.14-.78-1.96,0-.69.19-1.3.58-1.86.39-.55,1-1,1.84-1.33.84-.33,1.91-.5,3.22-.5,1.04,0,2.11.15,3.22.45,1.11.3,2.16.78,3.15,1.44l1.09-2.65c-.97-.66-2.12-1.17-3.45-1.53-1.33-.35-2.66-.53-4.01-.53-2.04,0-3.71.3-5.03.91-1.32.61-2.29,1.42-2.92,2.42-.63,1.01-.95,2.11-.95,3.3s.25,2.25.76,3.04c.51.79,1.18,1.41,2.01,1.87.83.46,1.75.85,2.75,1.14,1.01.3,2.01.56,3,.78,1,.22,1.91.48,2.74.78.83.3,1.5.69,2.02,1.18.52.49.78,1.13.78,1.92,0,.69-.2,1.3-.6,1.84-.4.54-1.02.97-1.86,1.28-.84.31-1.94.46-3.28.46-1.48,0-2.91-.25-4.28-.76-1.37-.51-2.5-1.15-3.38-1.92l-1.23,2.59c.93.86,2.2,1.56,3.82,2.11,1.61.54,3.31.81,5.08.81,2.03,0,3.72-.3,5.06-.91,1.34-.61,2.33-1.42,2.97-2.42.64-1.01.96-2.1.96-3.27s-.25-2.21-.76-2.99c-.51-.77-1.18-1.39-2.01-1.86Z"/>
        <rect class="cls-1" x="509.68" y="653.27" width="3.32" height="23.22"/>
        <polygon class="cls-1" points="523.15 679.81 526.04 679.81 536.99 648.56 534.1 648.56 523.15 679.81"/>
        <path class="cls-1" d="m563.43,663c-.77-1.34-1.82-2.38-3.15-3.13-1.33-.75-2.85-1.13-4.58-1.13-1.46,0-2.79.33-4,1-.83.46-1.54,1.09-2.14,1.86v-9.72h-3.18v24.62h3.05v-2.79c.6.83,1.34,1.49,2.21,1.97,1.21.67,2.56,1.01,4.06,1.01,1.73,0,3.25-.38,4.58-1.13,1.33-.75,2.38-1.8,3.15-3.15.77-1.35,1.16-2.92,1.16-4.71s-.39-3.36-1.16-4.69Zm-2.84,7.96c-.52.94-1.23,1.66-2.12,2.17-.9.51-1.91.76-3.04.76s-2.11-.25-3-.76c-.9-.51-1.6-1.23-2.12-2.17-.52-.94-.78-2.03-.78-3.27s.26-2.35.78-3.27c.52-.92,1.23-1.63,2.12-2.14.9-.51,1.9-.76,3-.76s2.14.25,3.04.76c.9.51,1.6,1.22,2.12,2.14.52.92.78,2.01.78,3.27s-.26,2.33-.78,3.27Z"/>
        <path class="cls-1" d="m574.2,672.96l-6.13-14.05h-3.32l7.76,17.54-.56,1.24c-.44,1.02-.92,1.73-1.43,2.12-.51.4-1.15.6-1.92.6-.6,0-1.16-.11-1.69-.33-.53-.22-1.02-.54-1.46-.96l-1.36,2.39c.58.53,1.26.93,2.06,1.21.8.28,1.61.41,2.46.41.91,0,1.74-.15,2.49-.45.75-.3,1.44-.8,2.07-1.51.63-.71,1.2-1.68,1.71-2.92l8.53-19.34h-3.12l-6.08,14.05Z"/>
        <polygon class="cls-1" points="629.58 653.27 626.46 653.27 620.02 662.18 613.52 653.27 610.3 653.27 609.74 653.27 591.1 653.27 591.1 656.15 599.06 656.15 599.06 676.49 602.34 676.49 602.34 656.15 610.3 656.15 610.3 654.05 617.93 664.59 609.21 676.49 613.02 676.49 619.9 666.92 626.86 676.49 630.67 676.49 621.89 664.48 629.58 653.95 629.58 656.15 637.54 656.15 637.54 676.49 640.83 676.49 640.83 656.15 648.79 656.15 648.79 653.27 630.08 653.27 629.58 653.27"/>
        <path class="cls-1" d="m664.03,658.48c.83-.8,1.81-1.42,2.95-1.86,1.14-.44,2.37-.66,3.7-.66s2.52.22,3.63.65c1.12.43,2.15,1.11,3.1,2.04l2.06-2.06c-1.06-1.19-2.36-2.09-3.88-2.69-1.53-.6-3.21-.9-5.04-.9s-3.47.29-4.98.88c-1.5.59-2.81,1.42-3.93,2.49-1.12,1.07-1.99,2.33-2.6,3.77-.62,1.44-.93,3.02-.93,4.74s.31,3.31.93,4.74c.62,1.44,1.48,2.69,2.59,3.77,1.11,1.07,2.41,1.9,3.91,2.49,1.5.59,3.15.88,4.94.88,1.64,0,3.22-.25,4.76-.75,1.54-.5,2.88-1.23,4.03-2.21v-9.06h-3.18v7.54c-.6.39-1.22.71-1.87.93-1.14.39-2.33.58-3.57.58-1.33,0-2.55-.22-3.68-.66-1.13-.44-2.11-1.07-2.94-1.87-.83-.81-1.47-1.76-1.92-2.85-.45-1.1-.68-2.27-.68-3.53s.23-2.47.68-3.57c.45-1.1,1.1-2.04,1.92-2.84Z"/>
        <path class="cls-1" d="m699.21,668.46c1.44-.64,2.54-1.56,3.32-2.77.77-1.21,1.16-2.65,1.16-4.33s-.39-3.13-1.16-4.35c-.77-1.22-1.88-2.15-3.32-2.79-1.44-.64-3.17-.96-5.21-.96h-9.06v23.22h3.32v-7.07h5.74c.51,0,1-.02,1.47-.06l4.99,7.13h3.62l-5.52-7.79c.22-.08.44-.15.64-.24Zm-5.31-1.86h-5.64v-10.45h5.64c2.12,0,3.73.45,4.83,1.36,1.09.91,1.64,2.19,1.64,3.85s-.55,2.95-1.64,3.87c-1.1.92-2.7,1.38-4.83,1.38Z"/>
        <path class="cls-1" d="m727.69,656.37c-1.12-1.07-2.42-1.9-3.91-2.49-1.49-.59-3.12-.88-4.89-.88s-3.44.3-4.94.9c-1.5.6-2.81,1.43-3.91,2.5-1.11,1.07-1.97,2.33-2.59,3.77-.62,1.44-.93,3.01-.93,4.71s.31,3.27.93,4.71c.62,1.44,1.48,2.69,2.59,3.77,1.11,1.07,2.42,1.91,3.93,2.5,1.51.6,3.16.9,4.93.9s3.4-.29,4.89-.88c1.49-.59,2.8-1.42,3.91-2.49,1.12-1.07,1.98-2.33,2.59-3.77.61-1.44.91-3.02.91-4.74s-.3-3.31-.91-4.74c-.61-1.44-1.47-2.69-2.59-3.77Zm-.5,12.06c-.45,1.08-1.08,2.03-1.89,2.84-.81.81-1.76,1.43-2.85,1.87-1.09.44-2.28.66-3.57.66s-2.5-.22-3.6-.66c-1.1-.44-2.05-1.07-2.87-1.87-.82-.81-1.45-1.75-1.91-2.84-.45-1.08-.68-2.27-.68-3.55s.23-2.47.68-3.55c.45-1.08,1.09-2.03,1.91-2.84.82-.81,1.77-1.43,2.87-1.87,1.09-.44,2.29-.66,3.6-.66s2.47.22,3.57.66c1.1.44,2.05,1.07,2.85,1.87.81.81,1.44,1.75,1.89,2.84.45,1.08.68,2.27.68,3.55s-.23,2.47-.68,3.55Z"/>
        <path class="cls-1" d="m751.83,666.34c0,2.59-.57,4.48-1.71,5.67-1.14,1.19-2.76,1.79-4.86,1.79s-3.69-.6-4.83-1.79c-1.14-1.19-1.71-3.09-1.71-5.67v-13.07h-3.32v13.2c0,3.36.87,5.92,2.62,7.66,1.75,1.75,4.15,2.62,7.2,2.62s5.48-.87,7.22-2.62c1.74-1.75,2.6-4.3,2.6-7.66v-13.2h-3.22v13.07Z"/>
        <path class="cls-1" d="m778.77,657.02c-.77-1.22-1.88-2.15-3.32-2.79-1.44-.64-3.17-.96-5.21-.96h-9.06v23.22h3.32v-7.03h5.74c2.03,0,3.77-.33,5.21-.98,1.44-.65,2.54-1.58,3.32-2.79.77-1.21,1.16-2.65,1.16-4.33s-.39-3.13-1.16-4.35Zm-3.8,8.19c-1.1.91-2.7,1.36-4.83,1.36h-5.64v-10.42h5.64c2.12,0,3.73.45,4.83,1.36,1.09.91,1.64,2.19,1.64,3.85s-.55,2.94-1.64,3.85Z"/>
      </g>
    </g>
  </g>
</svg>